<svg xmlns="http://www.w3.org/2000/svg" viewBox="0 0 560 150" role="img" aria-label="EuroHellenic — Owl of Athena concept">
  <!-- Wordmark set in <text>: Playfair Display where installed/loaded, Georgia fallback. -->
  <g transform="translate(10 13) scale(1.03)">
  <!-- coin-like roundel -->
  <circle cx="60" cy="60" r="57" fill="#0b2a4a"/>
  <circle cx="60" cy="60" r="51.5" fill="none" stroke="#8cc4f2" stroke-width="1.6"/>
  <!-- owl body with ear tufts -->
  <path fill="#ffffff" d="M60 32 C54 29.5 46 27.5 38.5 23 C40.5 29 40.8 35 39.6 42 C37.4 54 38.6 68 44 78 C47.6 84.6 53 88 60 88 C67 88 72.4 84.6 76 78 C81.4 68 82.6 54 80.4 42 C79.2 35 79.5 29 81.5 23 C74 27.5 66 29.5 60 32 Z"/>
  <!-- eyes -->
  <circle cx="50.2" cy="46" r="9.4" fill="#0b2a4a"/>
  <circle cx="69.8" cy="46" r="9.4" fill="#0b2a4a"/>
  <circle cx="50.2" cy="46" r="6" fill="#ffffff"/>
  <circle cx="69.8" cy="46" r="6" fill="#ffffff"/>
  <circle cx="51" cy="46" r="3.4" fill="#0b2a4a"/>
  <circle cx="69" cy="46" r="3.4" fill="#0b2a4a"/>
  <!-- beak -->
  <path fill="#0d5eaf" d="M60 51 L63.4 56 L60 62.5 L56.6 56 Z"/>
  <!-- breast feathers: stacked chevrons, as on the Athenian tetradrachm -->
  <g fill="none" stroke="#0b2a4a" stroke-width="1.8" stroke-linecap="round" stroke-linejoin="round">
    <path d="M52.5 66 l3 2.6 l3 -2.6 M61.5 66 l3 2.6 l3 -2.6"/>
    <path d="M48 72.5 l3 2.6 l3 -2.6 M57 72.5 l3 2.6 l3 -2.6 M66 72.5 l3 2.6 l3 -2.6"/>
    <path d="M52.5 79 l3 2.6 l3 -2.6 M61.5 79 l3 2.6 l3 -2.6"/>
  </g>
  <!-- wings -->
  <g fill="none" stroke="#0b2a4a" stroke-width="2" stroke-linecap="round">
    <path d="M43.4 58 C43.4 68 45.8 76.6 50.4 83"/>
    <path d="M76.6 58 C76.6 68 74.2 76.6 69.6 83"/>
  </g>
  <!-- olive branch perch -->
  <defs><clipPath id="owl-clip"><circle cx="60" cy="60" r="49"/></clipPath></defs>
  <g fill="#8cc4f2" clip-path="url(#owl-clip)">
    <path d="M17 97 C38 91.4 72 90 104 93.4 L103.6 95.2 C72 92 38 93.2 17.6 98.8 Z"/>
    <path d="M28 94.6 C26.4 89.6 22 87.2 18.4 87.4 C20.2 91.6 23.8 94.2 28 94.6 Z"/>
    <path d="M36 93.6 C38.2 98.4 42.8 100.4 46.6 99.8 C44.4 95.8 40.4 93.6 36 93.6 Z"/>
    <path d="M40.6 92.4 C39.6 87.2 35.8 84 32.2 83.6 C33.4 88 36.6 91.4 40.6 92.4 Z"/>
    <path d="M76 92.6 C78.4 97.4 83 99.2 86.8 98.4 C84.4 94.4 80.4 92.4 76 92.6 Z"/>
    <path d="M86 92.6 C86.4 87.6 89.8 84 93.4 83.2 C93 87.8 90.2 91.4 86 92.6 Z"/>
    <path d="M94 93.4 C96.6 97.6 100.8 99 104.2 98.2 C101.8 94.6 98 93 94 93.4 Z"/>
    <circle cx="47.6" cy="92" r="2.1"/>
    <circle cx="80.4" cy="88.6" r="2.1"/>
  </g>
  <!-- talons -->
  <g fill="#ffffff">
    <path d="M50.6 86 C50.6 89 51 91 52 92.4 C53 91 53.4 89.4 53.4 87 Z M53.8 87 C54 89.6 54.4 91.4 55.4 92.6 C56.4 91.4 56.8 89.6 56.8 87.4 Z"/>
    <path d="M69.4 86 C69.4 89 69 91 68 92.4 C67 91 66.6 89.4 66.6 87 Z M66.2 87 C66 89.6 65.6 91.4 64.6 92.6 C63.6 91.4 63.2 89.6 63.2 87.4 Z"/>
  </g>
</g>
  <text x="156" y="84" font-family="'Playfair Display', Georgia, 'Times New Roman', serif" font-size="60" fill="#0b2a4a">Euro<tspan font-style="italic" fill="#0d5eaf">Hellenic</tspan></text>
  <text x="159" y="114" font-family="'Open Sans', 'Segoe UI', Arial, sans-serif" font-size="13" font-weight="600" letter-spacing="3.4" fill="#0b2a4a">EDUCATION &amp; STUDENT SERVICES</text>
</svg>
